<?xml version="1.0" encoding="utf-8"?>
<!-- Generator: Adobe Illustrator 18.1.1, SVG Export Plug-In . SVG Version: 6.00 Build 0)  -->
<svg version="1.1" xmlns="http://www.w3.org/2000/svg" xmlns:xlink="http://www.w3.org/1999/xlink" x="0px" y="0px"
	 viewBox="0 0 25.7 15.6" enable-background="new 0 0 25.7 15.6" xml:space="preserve">
<g id="Layer_1">
</g>
<g id="Layer_2">
	<g>
		<path fill="#A4A6AC" d="M25.1,15.3c-0.2,0-0.4,0-0.7,0c-5.2,0-10.4,0-15.6,0c-2.7,0-5.4,0-8.1,0c-0.1,0-0.2,0-0.3,0
			c0-3.1,0-11.9,0-15c0.1,0,0.2,0,0.3,0c2.7,0,5.4,0,8.1,0c5.2,0,10.4,0,15.6,0c0.2,0,0.4,0,0.6,0c0-0.6,0,8.9,0,11.3
			C25.2,15.1,25.1,15.4,25.1,15.3z M1.7,1.6c0,0.1,0,0.2,0,0.2c0,2.1,0,9.9,0,12c0,0.2,0.1,0.3,0.3,0.3c1.5,0,3,0,4.5,0
			c2.8,0,5.7,0,8.5,0c2.9,0,5.7,0,8.6,0c0.3,0,0.3,0,0.3-0.3c0-2.1,0-9.9,0-12c0-0.1,0-0.2,0-0.3C16.5,1.6,9.2,1.6,1.7,1.6z"/>
		<path fill="#A4A6AC" d="M6.5,12.5c-1,0-1.9,0-2.9,0c0-0.1,0-0.1,0-0.2c0-1.3,0-7.7,0-9c0-0.2,0-0.2,0.2-0.2c0.8,0,1.7,0,2.5,0
			c0.2,0,0.2,0,0.2,0.2c0,1.3,0,7.7,0,9C6.5,12.4,6.5,12.4,6.5,12.5z"/>
		<path fill="#A4A6AC" d="M11.4,12.5c-1,0-1.9,0-2.9,0c0-0.2,0-0.4,0-0.6c0-1.2,0-7.5,0-8.7C8.5,3.1,8.6,3,8.7,3c0.8,0,1.7,0,2.5,0
			c0.1,0,0.2,0,0.2,0.2c0,1.3,0,7.8,0,9.1C11.4,12.4,11.4,12.4,11.4,12.5z"/>
		<path fill="#A4A6AC" d="M13.6,10.3c0-0.7,0-6.4,0-7.1c0-0.2,0-0.2,0.2-0.2c0.8,0,1.7,0,2.5,0c0.2,0,0.2,0,0.2,0.2
			c0,1.3,0,7.7,0,9.1c0,0.1,0,0.2-0.2,0.2c-0.9,0-1.7,0-2.6,0c-0.1,0-0.2-0.1-0.2-0.2C13.6,11.7,13.6,11,13.6,10.3L13.6,10.3z"/>
	</g>
</g>
</svg>
