<?xml version="1.0" encoding="utf-8"?>
<!-- Generator: Adobe Illustrator 18.1.1, SVG Export Plug-In . SVG Version: 6.00 Build 0)  -->
<svg version="1.1" xmlns="http://www.w3.org/2000/svg" xmlns:xlink="http://www.w3.org/1999/xlink" x="0px" y="0px"
	 viewBox="0 0 26.3 26.3" enable-background="new 0 0 26.3 26.3" xml:space="preserve">
<g id="Layer_1">
</g>
<g id="Layer_2">
	<g>
		<path fill="#A4A6AC" d="M23.8,13.2c0,5.7-4.7,10.5-10.4,10.6C7.4,23.8,2.6,19,2.6,13.3c0-5.8,4.6-10.7,10.6-10.7
			C19,2.6,23.8,7.3,23.8,13.2z M4.4,13.1c0,4.8,3.8,8.8,8.8,8.8c4.8,0,8.7-3.8,8.8-8.7c0-4.9-3.9-8.7-8.6-8.8
			C8.4,4.3,4.5,8.2,4.4,13.1z"/>
		<path fill="#A4A6AC" d="M18.7,10.3c0,0.4-0.2,0.6-0.4,0.8c-1.1,0.8-2.2,1.6-3.3,2.4c-0.1,0.1-0.2,0.2-0.2,0.4
			c-0.2,0.8-0.9,1.2-1.5,1.1c-0.8-0.1-1.3-0.8-1.2-1.6c0-0.2,0-0.3-0.2-0.5c-1.3-1-2.7-2.1-4-3.1c0,0-0.1-0.1-0.1-0.1
			C7.5,9.5,7.5,9.3,7.6,9.1C7.8,8.9,8,8.9,8.2,9.1c0.5,0.3,0.9,0.7,1.4,1c0.9,0.7,1.8,1.4,2.8,2.2c0.1,0.1,0.3,0.1,0.4,0.1
			c0.1-0.1,0.3-0.1,0.4-0.1c0.3,0,0.6-0.1,0.8-0.3c1-0.7,2.1-1.5,3.1-2.2c0.6-0.5,1.3-0.3,1.5,0.4C18.7,10.2,18.7,10.3,18.7,10.3z"
			/>
	</g>
</g>
</svg>
