<?xml version="1.0" encoding="utf-8"?>
<!-- Generator: Adobe Illustrator 18.1.1, SVG Export Plug-In . SVG Version: 6.00 Build 0)  -->
<svg version="1.1" xmlns="http://www.w3.org/2000/svg" xmlns:xlink="http://www.w3.org/1999/xlink" x="0px" y="0px"
	 viewBox="0 0 31.4 31.4" enable-background="new 0 0 31.4 31.4" xml:space="preserve">
<g id="Layer_1">
</g>
<g id="Layer_2">
	<g>
		<path fill="#A4A6AC" d="M23.8,19.4c0,5.7-4.7,10.5-10.4,10.6c-6,0.1-10.7-4.7-10.8-10.5c0-5.8,4.6-10.7,10.6-10.7
			C19,8.8,23.8,13.5,23.8,19.4z M4.4,19.4c0,4.8,3.8,8.8,8.8,8.8c4.8,0,8.7-3.8,8.8-8.7c0-4.9-3.9-8.7-8.6-8.8
			C8.4,10.6,4.5,14.5,4.4,19.4z"/>
		<path fill="#A4A6AC" d="M27.5,16.2c0,1.6-2,5.8-3.3,6.7c1.1-4.1,0.5-7.8-2.3-11.1c-2.8-3.2-6.4-4.4-10.6-3.9
			c0.9-1,6.3-2.6,7.8-2.3c-0.1,0.2-0.2,0.3-0.3,0.5c-0.2,0.3-0.3,0.6-0.4,1c-0.2,0.5,0.4,1,1,0.9c1-0.2,1.8-1.1,1.8-2.1
			c0-0.2,0.1-0.3,0.3-0.3c2.9,0.1,5.3-0.8,7.3-3c0.1-0.2,0.3-0.3,0.4-0.6c0,0.1,0.1,0.2,0.1,0.3c0.4,2.9-0.6,5.3-2.8,7.1
			c-0.5,0.4-1,0.7-1.4,1.1c-0.1,0-0.1,0.1-0.2,0.2c0.1,0.1,0.1,0.1,0.2,0.1c0.6,0.1,1.2,0,1.7-0.3c1-0.5,1.8-1.2,2.6-2.1
			c0.1-0.1,0.1-0.2,0.1-0.2c0,0,0.1,0,0.1,0.1c0,0.1,0,0.1,0,0.2c0.1,1,0.1,2-0.3,3c-0.5,1.4-1.4,2.4-2.9,2.8
			c-0.4,0.1-0.7,0.1-1.1,0.2c-0.6,0.2-0.9,0.6-0.9,1.1c0,0.5,0.4,1,0.9,1.2c0.7,0.3,1.3,0.1,1.9-0.4C27.3,16.4,27.4,16.3,27.5,16.2z
			"/>
		<path fill="#A4A6AC" d="M18.7,16.6c0,0.4-0.2,0.6-0.4,0.8c-1.1,0.8-2.2,1.6-3.3,2.4c-0.1,0.1-0.2,0.2-0.2,0.4
			c-0.2,0.8-0.9,1.2-1.5,1.1c-0.8-0.1-1.3-0.8-1.2-1.6c0-0.2,0-0.3-0.2-0.5c-1.3-1-2.7-2.1-4-3.1c0,0-0.1-0.1-0.1-0.1
			c-0.2-0.2-0.2-0.4-0.1-0.6c0.1-0.2,0.4-0.2,0.6-0.1c0.5,0.3,0.9,0.7,1.4,1c0.9,0.7,1.8,1.4,2.8,2.2c0.1,0.1,0.3,0.1,0.4,0.1
			c0.1-0.1,0.3-0.1,0.4-0.1c0.3,0,0.6-0.1,0.8-0.3c1-0.7,2.1-1.5,3.1-2.2c0.6-0.5,1.3-0.3,1.5,0.4C18.7,16.4,18.7,16.5,18.7,16.6z"
			/>
	</g>
</g>
</svg>
