<?xml version="1.0" encoding="utf-8"?>
<!-- Generator: Adobe Illustrator 18.1.1, SVG Export Plug-In . SVG Version: 6.00 Build 0)  -->
<svg version="1.1" xmlns="http://www.w3.org/2000/svg" xmlns:xlink="http://www.w3.org/1999/xlink" x="0px" y="0px"
	 viewBox="0 0 21.2 16.8" enable-background="new 0 0 21.2 16.8" xml:space="preserve">
<g id="Layer_1">
</g>
<g id="Layer_2">
	<g>
		<path fill="#58595B" d="M1.4,11.3c0.9,0,1.7,0,2.5,0c1.3,0.1,2.3-0.4,3.2-1.3C7.7,9.5,8.3,9,8.9,8.4c0,0,0,0,0-0.1
			C8.2,7.8,7.7,7.2,7.1,6.7c-0.8-0.8-1.8-1.2-3-1.2c-0.8,0-1.6,0-2.4,0c-0.1,0-0.1,0-0.2,0c0-1,0-1.9,0-2.9c0.1,0,0.1,0,0.2,0
			c0.8,0,1.6,0,2.4,0c2-0.1,3.7,0.7,5.1,2.1c0.4,0.5,0.9,0.9,1.4,1.3c0.7,0.7,1.6,1,2.6,1c0.7,0,1.3,0,2,0c-0.1-0.1-0.1-0.1-0.2-0.2
			c-0.4-0.4-0.9-0.9-1.3-1.3c-0.1-0.1-0.2-0.3-0.1-0.5c0.1-0.2,0.2-0.2,0.4-0.2c0.6,0,1.2,0,1.8,0c0.4,0,0.8,0.2,1.1,0.5
			c0.9,0.9,1.7,1.7,2.6,2.6c0.4,0.4,0.4,0.8,0,1.2c-0.9,0.9-1.7,1.7-2.6,2.6c-0.3,0.3-0.7,0.5-1.1,0.5c-0.6,0-1.2,0-1.8,0
			c-0.2,0-0.3,0-0.4-0.2c-0.1-0.2,0-0.3,0.1-0.4c0.4-0.4,0.9-0.9,1.3-1.3c0,0,0.1-0.1,0.2-0.2c-0.1,0-0.2,0-0.2,0
			c-0.6,0-1.2,0-1.9,0c-0.9,0-1.8,0.3-2.5,0.9c-0.5,0.4-1,0.9-1.4,1.4c-0.7,0.7-1.5,1.3-2.4,1.7c-0.7,0.3-1.5,0.4-2.3,0.4
			c-1,0-2,0-3,0c0,0-0.1,0-0.1,0C1.4,13.3,1.4,12.3,1.4,11.3z"/>
	</g>
</g>
</svg>
