<?xml version="1.0" encoding="utf-8"?>
<!-- Generator: Adobe Illustrator 18.1.1, SVG Export Plug-In . SVG Version: 6.00 Build 0)  -->
<svg version="1.1" xmlns="http://www.w3.org/2000/svg" xmlns:xlink="http://www.w3.org/1999/xlink" x="0px" y="0px"
	 viewBox="0 0 59.7 54" enable-background="new 0 0 59.7 54" xml:space="preserve">
<g id="Layer_1">
</g>
<g id="Layer_2">
	<g>
		<path fill="#A6A8AB" d="M57,24c-0.1-0.1-0.1-0.1-0.1-0.2c-1.1-2.2-2.9-3.2-5.3-3.2c-4.4,0-8.8,0-13.3,0c-0.7,0-1-0.2-1-1
			c0-1.3,0-2.6,0-3.9c0-0.4-0.1-0.8-0.3-1.1c-1.4-1.7-2.9-3.3-4.3-5c-1.8-2.1-3.5-4.2-5.4-6.3c-0.4-0.4-1-0.9-1.5-0.9
			c-6.6-0.1-13.2,0-19.8,0c-1.8,0-3.3,1.6-3.3,3.4c0,14,0,28.1,0,42.1c0,2,2,3.8,3.7,3.7c2.1-0.1,4.1,0,6.2,0c7.1,0,14.1,0,21.2,0
			c1.9,0,3.7-1.8,3.6-3.6c-0.1-0.9,0-1.8,0-2.6c-0.1-0.9,0.2-1.1,1.1-1.1c4.5,0,9,0,13.5,0c0.6,0,1.1-0.1,1.7-0.3
			c1.5-0.5,2.6-1.6,3.4-3.2V24z M26.4,5.9c0.1-0.1,0.2-0.1,0.3-0.2c2.6,3,5.2,6.1,8,9.3c-0.5,0.1-0.7,0.1-0.9,0.1
			c-1.8,0-3.6,0-5.4,0c-1.2,0-2-0.9-2-2C26.4,10.7,26.4,8.3,26.4,5.9z M35.4,45.4c-0.1,0.7,0,1.5,0,2.2c0,1.3-0.8,2.1-2.1,2.1
			c-8.9,0-17.8,0-26.7,0c-1.3,0-2.1-0.8-2.1-2.2c0-6.8,0-13.7,0-20.5c0,0,0,0,0,0c0-6.8,0-13.7,0-20.5c0-1.3,0.8-2.2,2.1-2.2
			c5.6,0,11.3,0,16.9,0c0.8,0,1,0.3,1,1c0,2.7,0.1,5.4,0,8.1c-0.1,2,1.7,3.8,3.7,3.7c2.1-0.1,4.2,0,6.3,0c0.7,0,1,0.2,1,0.9
			c0,2.7,0,2.7-2.6,2.7c-4,0-8,0.1-12-0.1c-2.8-0.1-5.5,2.9-5.4,5.4c0.1,4.4,0,8.7,0.1,13.1c0,2.9,2.4,5.2,5.2,5.2
			c4.5,0,9.1,0,13.6,0C35.2,44.3,35.5,44.6,35.4,45.4z M55.4,38.5c0,2.1-2,4-4,4c-10-0.1-20.1,0-30.1-0.1c-2.5,0-4.1-1.6-4.1-4.1
			c0-4,0.1-8-0.1-12c-0.1-1.9,1.8-3.9,3.8-3.9c5.2,0,10.3,0,15.5,0v0c5,0,10,0,15,0c2.2,0,3.9,1.7,3.9,3.9
			C55.4,30.4,55.4,34.5,55.4,38.5z"/>
		<text transform="matrix(1 0 0 1 20.4861 38.3411)" fill="#A6A8AB" font-family="'PFDinTextPro-Medium'" font-size="17.2011">PDF</text>
	</g>
</g>
</svg>
