<?xml version="1.0" encoding="utf-8"?>
<!-- Generator: Adobe Illustrator 18.1.1, SVG Export Plug-In . SVG Version: 6.00 Build 0)  -->
<svg version="1.1" xmlns="http://www.w3.org/2000/svg" xmlns:xlink="http://www.w3.org/1999/xlink" x="0px" y="0px"
	 viewBox="0 0 62 56" enable-background="new 0 0 62 56" xml:space="preserve">
<g id="Layer_1">
</g>
<g id="Layer_2">
	<g>
		<path fill="#F7F8F8" stroke="#BBBDBF" stroke-width="0.5741" stroke-miterlimit="10" d="M4.8,46.6c-0.7,0-1.4,0-2.2,0
			c-1,0-1.4-0.5-1.4-1.4c0-12.3,0-24.5,0-36.8c0-1,0.4-1.5,1.5-1.5c1.8,0,3.6,0,5.5,0c0.1-0.8,0.1-1.6,0.2-2.4
			c0.1-0.9,0.1-1.9,0.1-2.9c0.1-1.1,0.6-1.5,1.8-1.4c2,0.2,4.1,0.3,6.2,0.5c4.7,0.4,9.3,0.8,14,1.1c4.1,0.3,8.2,0.6,12.2,1
			c0.8,0.1,1.7,0.1,2.5,0.2c0.9,0.1,1.3,0.6,1.2,1.5c-0.1,0.8-0.2,1.5-0.3,2.3c0.2,0,0.4,0,0.6,0c1.7,0,3.4,0,5.1,0
			c1.2,0,1.6,0.4,1.6,1.6c0,1.7,0,3.5,0,5.2c0,0.2,0,0.4,0,0.7c0.3,0,0.5,0,0.7,0c1.8,0,3.6,0,5.4,0c1,0,1.4,0.4,1.4,1.5
			c0,12.2-0.1,24.4-0.1,36.6c0,1.1-0.4,1.5-1.5,1.5c-5.5,0-10.9,0-16.4,0c-0.2,0-0.5,0-0.7,0c-0.4,1.7-0.6,1.9-2.4,1.7
			c-3.6-0.3-7.2-0.6-10.9-0.9c-4.1-0.3-8.2-0.7-12.4-1C13,53.6,9.4,53.3,5.8,53c-1.4-0.1-1.8-0.6-1.6-2c0.2-1.4,0.4-2.7,0.5-4.1
			C4.8,46.9,4.8,46.8,4.8,46.6z M50.9,44.1c0-0.2,0-0.4,0-0.5c0-11.2,0-22.4,0-33.7c0-0.5-0.1-0.6-0.6-0.6c-2.2,0-4.3,0-6.5,0
			c-13.2,0-26.3,0-39.5,0c-0.6,0-0.7,0.2-0.7,0.7c0,11.1,0,22.3,0,33.4c0,0.2,0,0.4,0,0.7C19.4,44.1,35.1,44.1,50.9,44.1z M58.3,17
			c-1.6,0-3.3,0-5,0c0,0.3,0,0.6,0,0.9c0,9,0,18.1,0,27.1c0,1.3-0.4,1.6-1.6,1.6c-2.8,0-5.6,0-8.4,0c-0.2,0-0.4,0-0.7,0
			c-0.1,1.7-0.3,3.3-0.4,4.9c5.4,0,10.7,0,16,0C58.3,40,58.3,28.5,58.3,17z M6.8,50.6c11,0.9,21.9,1.8,32.8,2.7
			c0.2-2.2,0.4-4.4,0.6-6.6c-0.4,0-0.6,0-0.9,0c-8.5,0-17,0-25.5,0c-2,0-4,0-6,0c-0.2,0-0.5,0-0.6,0.3C7.1,48.1,7,49.3,6.8,50.6z
			 M10.7,6.8c11,0,21.9,0,32.9,0c0.1-0.5,0.1-1,0.2-1.5C32.8,4.5,21.9,3.6,11,2.7C10.9,4.2,10.8,5.5,10.7,6.8z"/>
		<g>
			<path fill="#BBBDBF" stroke="#BBBDBF" stroke-miterlimit="10" d="M32.7,13.9c0.4,0,0.8-0.1,1.2-0.1c0.1,0,0.3,0.1,0.4,0.1
				c1,0.7,1.9,1.5,2.8,2.3c0.1,0.1,0.2,0.2,0.2,0.4c0.2,0.8,0.3,1.6,0.4,2.3c0,0.3-0.1,0.5-0.2,0.7c-2.5,3.1-5,6.2-7.5,9.3
				c-1.2,1.5-2.4,2.9-3.5,4.4c-0.1,0.2-0.3,0.3-0.5,0.3c-0.3-0.1-0.5-0.5-0.2-0.8c0.3-0.4,0.7-0.9,1-1.3c2.7-3.4,5.4-6.7,8.1-10.1
				c0.1-0.2,0.2-0.3,0.1-0.6c-0.1-0.5-0.2-1.1-0.3-1.6c0-0.1-0.1-0.3-0.2-0.3c-0.8-0.6-1.5-1.2-2.3-1.9c-0.1-0.1-0.3-0.1-0.4-0.1
				c-0.6,0-1.2,0.1-1.8,0.1c-0.1,0-0.2,0.1-0.3,0.2c-0.9,1.2-1.9,2.3-2.8,3.5c-1.9,2.4-3.8,4.7-5.7,7.1c-0.2,0.3-0.4,0.5-0.6,0.8
				c-0.2,0.3-0.5,0.3-0.7,0.1c-0.2-0.2-0.2-0.4,0-0.7c1.1-1.4,2.3-2.9,3.4-4.3c1.9-2.4,3.9-4.8,5.8-7.3c0.6-0.8,1.3-1.6,1.9-2.4
				c0.1-0.1,0.3-0.2,0.4-0.2C31.8,14,32.3,14,32.7,13.9L32.7,13.9z M30.7,16.1c0.5,0,0.9,0,1.3,0c0.2,0,0.4,0.1,0.6,0.2
				c0.9,0.7,1.8,1.5,2.7,2.2c0.1,0.1,0.3,0.3,0.3,0.5c0.1,0.4,0.1,0.8,0.2,1.2c0.3-0.4,0.6-0.7,0.9-1.1c0.1-0.1,0.1-0.3,0.1-0.4
				c-0.1-0.6-0.2-1.2-0.3-1.7c0-0.1-0.1-0.2-0.2-0.3c-0.8-0.6-1.5-1.2-2.3-1.8c-0.1-0.1-0.2-0.1-0.3-0.1c-0.6,0-1.2,0-1.8,0.1
				c-0.1,0-0.2,0-0.3,0.1C31.3,15.4,31,15.7,30.7,16.1z"/>
			<path fill="#BBBDBF" stroke="#BBBDBF" stroke-miterlimit="10" d="M17.9,36.7c0.1-1,0.3-2,0.4-3.1c0.2-1.2,0.3-2.5,0.5-3.7
				c0-0.1,0-0.1,0-0.2c0.1-0.3,0.3-0.4,0.5-0.4c0.2,0,0.4,0.2,0.3,0.5c-0.1,0.9-0.2,1.7-0.3,2.6c0,0.4-0.1,0.8-0.1,1.1
				c0,0.1,0.1,0.3,0.1,0.3c0.5,0.5,1.1,0.9,1.6,1.4c0.1,0.1,0.3,0.1,0.4,0.1c1.1-0.4,2.2-0.8,3.4-1.2c0.1,0,0.2-0.1,0.3-0.1
				c0.2,0,0.5,0.1,0.5,0.4c0.1,0.2,0,0.4-0.3,0.5c-2.2,0.8-4.3,1.5-6.5,2.3c-0.1,0-0.2,0.1-0.4,0.1C18,37.3,17.9,37.2,17.9,36.7z
				 M19.1,34.9c-0.1,0.5-0.1,0.9-0.2,1.3c0.5-0.2,0.8-0.3,1.3-0.5C19.8,35.5,19.4,35.2,19.1,34.9z"/>
			<path fill="#BBBDBF" stroke="#BBBDBF" stroke-miterlimit="10" d="M28,39c3.4,0,6.9,0,10.3,0c0.1,0,0.1,0,0.2,0
				c0.2,0,0.4,0,0.4,0.2c0,0.2-0.2,0.2-0.3,0.2c-1,0-1.9,0-2.9,0c-6,0-12,0-18,0c-0.1,0-0.3,0-0.4,0c-0.1,0-0.2-0.1-0.2-0.2
				c0-0.1,0.1-0.2,0.2-0.2c0,0,0.1,0,0.2,0C21,39,24.5,39,28,39L28,39z"/>
			<path fill="#BBBDBF" stroke="#BBBDBF" stroke-miterlimit="10" d="M33.4,18.3c-0.1,0.1-0.1,0.2-0.1,0.2c-1.8,2.2-3.6,4.4-5.3,6.6
				c-1.3,1.6-2.6,3.2-3.9,4.9c-0.1,0.1-0.1,0.2-0.2,0.3c-0.1,0.1-0.2,0.2-0.3,0.1c-0.2-0.1-0.1-0.3,0-0.4c0.2-0.2,0.4-0.5,0.6-0.7
				c2.9-3.6,5.8-7.2,8.7-10.9c0.1-0.1,0.2-0.2,0.3-0.3c0.1,0,0.2,0,0.2,0C33.3,18.2,33.4,18.2,33.4,18.3z"/>
		</g>
	</g>
</g>
</svg>
