<?xml version="1.0" encoding="utf-8"?>
<!-- Generator: Adobe Illustrator 18.1.1, SVG Export Plug-In . SVG Version: 6.00 Build 0)  -->
<svg version="1.1" xmlns="http://www.w3.org/2000/svg" xmlns:xlink="http://www.w3.org/1999/xlink" x="0px" y="0px"
	 viewBox="0 0 29.3 29.3" enable-background="new 0 0 29.3 29.3" xml:space="preserve">
<g id="Layer_1">
</g>
<g id="Layer_2">
	<g>
		<g>
			<path fill="#A4A6AC" d="M28,8.5c0,1.3-1,2.3-2.2,2.3c-1.2,0-2.2-1-2.2-2.3c0-1.2,1-2.2,2.2-2.2C27,6.3,28,7.2,28,8.5z"/>
			<g>
				<path fill="#A4A6AC" d="M17.4,19.9c-0.7-0.8-1.4-1.4-2-2.2c-0.6-0.7-1.1-1.4-1.5-2.2c-0.5-0.9-0.3-1.5,0.5-2.2
					c1.4-1.3,2.9-2.7,4.3-4c0.4-0.4,0.4-0.4,0.1-0.8c-0.1-0.1-0.1-0.1-0.2-0.2c-0.3-0.8-1-1-1.8-0.9c-0.9,0-1.9-0.1-2.8-0.1
					c-0.6,0-0.9-0.3-0.9-0.9c0-0.5,0.3-0.8,0.9-0.8c1.5-0.1,2.9-0.1,4.4-0.1c0.3,0,0.6,0.1,0.8,0.4c1.3,1.5,2.6,3,3.8,4.6
					c0.4,0.5,0.6,1.2,0.9,1.7c0.2,0.5,0.4,0.9,0.5,1.4c0.1,0.2,0.2,0.3,0.4,0.3c1,0,2,0.1,3,0.1c0.5,0,0.8,0.3,0.9,0.8
					c0,0.5-0.3,0.8-0.8,0.9c-0.7,0.1-1.3,0.1-2,0.1c-0.6,0-1.3,0-1.9,0.1c-0.5,0-0.8-0.2-1.1-0.6c-0.3-0.6-0.6-1.3-1-1.9
					c-0.1-0.2-0.2-0.2-0.4-0.1c-1.1,0.8-2.2,1.6-3.2,2.4c-0.2,0.2-0.2,0.3-0.1,0.5c0.9,1.2,1.8,2.5,2.7,3.7c0.7,0.9,0.3,2-0.9,2.2
					c-2.1,0.4-4.3,0.9-6.4,1.3c-0.7,0.2-1.3-0.1-1.5-0.7C12,22,12.3,21.4,13,21.2c1.2-0.4,2.4-0.7,3.6-1
					C16.8,20.1,17.1,20,17.4,19.9z"/>
				<path fill="#A4A6AC" d="M12.3,15.3c0.1,1,0.5,1.8,1.1,2.6c-0.1,0.1-0.2,0.2-0.2,0.2c-2.4,1.8-4.8,3.6-7.2,5.4
					c-0.6,0.5-1.3,0.4-1.7-0.2c-0.3-0.5-0.2-1.1,0.3-1.6c1-0.9,2.1-1.7,3.1-2.6c1.5-1.2,2.9-2.4,4.4-3.6
					C12.1,15.5,12.1,15.4,12.3,15.3z"/>
				<path fill="#A4A6AC" d="M10.4,9.7c0.9,0,1.8,0,2.6,0c0.3,0,0.6,0,0.7,0.3c0.2,0.3,0.2,0.7-0.1,0.9c-0.1,0.1-0.3,0.3-0.5,0.2
					c-1.9-0.1-3.8-0.1-5.7-0.2C7.1,11,7,10.8,7,10.5c0-0.3,0.2-0.5,0.5-0.6C8.5,9.9,9.4,9.9,10.4,9.7C10.4,9.8,10.4,9.7,10.4,9.7z"
					/>
				<path fill="#A4A6AC" d="M7.8,13.2c0.6,0,1.3,0,1.9,0c0.5,0,0.8,0.3,0.8,0.8c0,0.5-0.3,0.8-0.8,0.8c-1.9-0.1-3.7-0.1-5.6-0.2
					c-0.4,0-0.6-0.2-0.6-0.5c0-0.4,0.2-0.6,0.6-0.6C5.3,13.4,6.5,13.3,7.8,13.2C7.8,13.3,7.8,13.2,7.8,13.2z"/>
				<path fill="#A4A6AC" d="M3.7,16.8c0.8,0,1.7-0.1,2.5-0.1c0.4,0,0.7,0.3,0.7,0.8c0,0.5-0.2,0.8-0.7,0.8C4.6,18.2,3,18.1,1.4,18
					c-0.3,0-0.7,0-0.8-0.4c-0.1-0.4,0.1-0.7,0.5-0.7C2,16.9,2.9,16.8,3.7,16.8C3.7,16.8,3.7,16.8,3.7,16.8z"/>
			</g>
		</g>
	</g>
</g>
</svg>
