<?xml version="1.0" encoding="utf-8"?>
<!-- Generator: Adobe Illustrator 18.1.1, SVG Export Plug-In . SVG Version: 6.00 Build 0)  -->
<svg version="1.1" xmlns="http://www.w3.org/2000/svg" xmlns:xlink="http://www.w3.org/1999/xlink" x="0px" y="0px"
	 viewBox="0 0 26.3 26.3" enable-background="new 0 0 26.3 26.3" xml:space="preserve">
<g id="Layer_1">
</g>
<g id="Layer_2">
	<g>
		<path fill="#C71C24" d="M13.1,24.1c-5.9,0-10.9-4.8-10.9-10.7c0-6.2,4.8-11,10.9-11.1c6.1,0,10.9,4.8,11,11
			C24.1,19.2,19.2,24,13.1,24.1z M22.5,13.2c0-5.1-4.2-9.3-9.2-9.4c-5.1-0.1-9.4,3.9-9.5,9c-0.2,5.3,4,9.5,9.1,9.6
			C18.3,22.7,22.5,18.3,22.5,13.2z"/>
		<path fill="#C71C24" d="M12.9,14.7c2.6,0,4.6,1.5,5.4,3.6c0,0.1,0.1,0.1,0.1,0.2c0.1,0.4,0,0.7-0.4,0.8c-0.3,0.1-0.6-0.1-0.7-0.5
			c-0.4-1.2-1.2-2.1-2.3-2.6c-2.3-1-4.9,0.1-5.7,2.5c0,0.1-0.1,0.2-0.1,0.2c-0.1,0.3-0.4,0.4-0.7,0.4C8.1,19.3,7.9,19,8,18.7
			c0.1-0.4,0.2-0.8,0.4-1.1C9.5,15.7,11.1,14.8,12.9,14.7z"/>
		<path fill="#C71C24" d="M11.6,10c0,0.7-0.2,1.3-0.6,1.8c-0.6,0.7-1.4,0.7-2,0c-0.8-0.9-0.8-2.6,0-3.6c0.6-0.8,1.5-0.8,2.1,0
			C11.5,8.8,11.6,9.4,11.6,10z"/>
		<path fill="#C71C24" d="M17.9,10.1c0,0.7-0.2,1.3-0.6,1.8c-0.5,0.7-1.4,0.7-1.9,0c-0.8-0.9-0.8-2.7-0.1-3.7c0.6-0.7,1.4-0.7,2,0
			C17.7,8.7,17.9,9.4,17.9,10.1z"/>
	</g>
</g>
</svg>
