<?xml version="1.0" encoding="utf-8"?>
<!-- Generator: Adobe Illustrator 18.1.1, SVG Export Plug-In . SVG Version: 6.00 Build 0)  -->
<svg version="1.1" xmlns="http://www.w3.org/2000/svg" xmlns:xlink="http://www.w3.org/1999/xlink" x="0px" y="0px"
	 viewBox="0 0 85.8 93.5" enable-background="new 0 0 85.8 93.5" xml:space="preserve">
<g id="Layer_1">
</g>
<g id="Layer_2">
	<g>
		<path fill="#F7F8F8" stroke="#BBBDBF" stroke-width="1.4173" stroke-miterlimit="10" d="M21.4,30.7c0-5.5,0.1-10.9,0-16.4
			C21.4,11,22.8,8.5,25,6.2c2.8-2.9,6.3-4.1,10.2-4c5.6,0,11.1-0.1,16.7,0.1C57,2.4,60.7,5,63.2,9.5c1,1.8,1.2,3.6,1.2,5.6
			c-0.1,5.1,0,10.1,0.1,15.2c0,6,0.1,12,0.1,18c0,1.2,0,1.3,1.3,1.3c4.4,0.1,8.8,0.1,13.2,0.2c1.1,0,2.1,0.1,3.2,0.2
			c1.7,0.2,2.3,1.4,1.2,2.7c-1.3,1.7-2.8,3.3-4.3,4.9C73,63.7,66.8,69.9,60.7,76c-4.4,4.3-8.8,8.6-13.2,12.9c-0.5,0.5-1.2,1-1.8,1.4
			c-1.8,1.3-3.8,1.4-5.5,0c-1.9-1.6-3.7-3.2-5.4-5c-8.8-8.7-17.6-17.4-26.3-26.2c-1.8-1.8-3.5-3.7-5.2-5.6c-0.4-0.4-0.7-1-1-1.5
			c-0.5-1.1-0.1-1.9,1.1-1.9c3.2-0.2,6.3-0.3,9.5-0.4c2.5-0.1,5-0.1,7.5-0.1c0.9,0,1.1-0.3,1.1-1.1c0-5.9,0-11.8,0-17.8
			C21.3,30.7,21.4,30.7,21.4,30.7z"/>
	</g>
</g>
</svg>
