<?xml version="1.0" encoding="utf-8"?>
<!-- Generator: Adobe Illustrator 18.1.1, SVG Export Plug-In . SVG Version: 6.00 Build 0)  -->
<svg version="1.1" xmlns="http://www.w3.org/2000/svg" xmlns:xlink="http://www.w3.org/1999/xlink" x="0px" y="0px"
	 viewBox="0 0 21.6 12.2" enable-background="new 0 0 21.6 12.2" xml:space="preserve">
<g id="Layer_1">
</g>
<g id="Layer_2">
	<g>
		<path fill="#FFFFFF" d="M11,10.8c-1.3,0-2.6-0.2-3.8-0.6C5.3,9.5,3.7,8.4,2.3,7.1C2.1,6.9,1.9,6.8,1.8,6.6c-0.2-0.3-0.2-0.7,0-1.1
			C1.9,5.3,2.1,5.2,2.2,5c1.4-1.2,3-2.2,4.7-2.9c1.2-0.4,2.3-0.7,3.6-0.8c1.1,0,2.3,0.2,3.3,0.5c1.9,0.6,3.6,1.7,5.2,2.9
			c0.2,0.2,0.4,0.4,0.6,0.6c0.4,0.5,0.3,1-0.1,1.4c-0.4,0.4-0.9,0.8-1.3,1.2c-1.3,1.1-2.8,1.9-4.5,2.4C12.9,10.6,11.9,10.8,11,10.8z
			 M7.1,6.1c0,2,1.6,3.7,3.7,3.7c2,0,3.6-1.7,3.6-3.7c0-2-1.6-3.7-3.6-3.7C8.8,2.4,7.1,4,7.1,6.1z"/>
		<path fill="#FFFFFF" d="M12.2,6.1c0,0.8-0.6,1.4-1.4,1.4c-0.7,0-1.4-0.7-1.4-1.4c0-0.8,0.6-1.4,1.4-1.4
			C11.6,4.7,12.2,5.3,12.2,6.1z"/>
	</g>
</g>
</svg>
